<?xml version="1.0" encoding="UTF-8" standalone="no"?>
<!-- Created with Inkscape (http://www.inkscape.org/) -->

<svg
   xmlns:dc="http://purl.org/dc/elements/1.1/"
   xmlns:cc="http://creativecommons.org/ns#"
   xmlns:rdf="http://www.w3.org/1999/02/22-rdf-syntax-ns#"
   xmlns:svg="http://www.w3.org/2000/svg"
   xmlns="http://www.w3.org/2000/svg"
   xmlns:sodipodi="http://sodipodi.sourceforge.net/DTD/sodipodi-0.dtd"
   xmlns:inkscape="http://www.inkscape.org/namespaces/inkscape"
   width="210mm"
   height="297mm"
   viewBox="0 0 744.09448819 1052.3622047"
   id="svg2"
   version="1.1"
   inkscape:version="0.91 r13725"
   sodipodi:docname="n7.svg">
  <defs
     id="defs4" />
  <sodipodi:namedview
     id="base"
     pagecolor="#ffffff"
     bordercolor="#666666"
     borderopacity="1.0"
     inkscape:pageopacity="0.0"
     inkscape:pageshadow="2"
     inkscape:zoom="1.7150127"
     inkscape:cx="356.58615"
     inkscape:cy="218.70195"
     inkscape:document-units="px"
     inkscape:current-layer="layer1"
     showgrid="false"
     showguides="true"
     inkscape:guide-bbox="true"
     inkscape:window-width="1920"
     inkscape:window-height="1019"
     inkscape:window-x="-4"
     inkscape:window-y="0"
     inkscape:window-maximized="1" />
  <metadata
     id="metadata7">
    <rdf:RDF>
      <cc:Work
         rdf:about="">
        <dc:format>image/svg+xml</dc:format>
        <dc:type
           rdf:resource="http://purl.org/dc/dcmitype/StillImage" />
        <dc:title></dc:title>
      </cc:Work>
    </rdf:RDF>
  </metadata>
  <g
     inkscape:label="Layer 1"
     inkscape:groupmode="layer"
     id="layer1">
    <path
       style="fill:#000000"
       d="m 451.98954,862.42838 50.74632,-50.75364 0,-13.24636 0,-13.24636 12.5,0 12.5,0 0,64 0,64.00003 -63.24632,0 -63.24633,0 z m -317.25369,-77.24636 23.03984,0 c 30.92227,0 29.29398,-0.83834 54.32161,27.96799 l 32.90142,37.65871 c 14.80221,17.04593 21.70101,23.01644 27.23714,23.57216 l 3,0.30114 0.52059,-89.5 35.97941,0 0,127.00003 -18.25,-0.01 c -25.6615,-0.011 -35.53088,-1.9871 -46.48762,-9.3097 -3.1187,-2.0838 -15.70349,-15.95249 -36.46293,-40.18233 -17.4353,-20.35 -31.92701,-36.8566 -34.13291,-38.9191 -3.74258,-3.49928 -8.7975,-2.84234 -8.7975,-2.84234 0,0 0.13096,17.92604 0.13096,44.26144 l 0,47.00003 -33.00001,0 z m 293.83334,30.86669 -106.83333,-0.86669 0,-30 159,0 0,30.35596 -94.51726,96.69764 -57.09928,0 z"
       id="path4201"
       inkscape:connector-curvature="0"
       sodipodi:nodetypes="ccccccccccccsccsccccccsscsccccccccccc" />
  </g>
</svg>
